<?xml version="1.0" encoding="iso-8859-1"?>
<!-- Uploaded to: SVG Repo, www.svgrepo.com, Generator: SVG Repo Mixer Tools -->
<svg version="1.1" id="Layer_1" xmlns="http://www.w3.org/2000/svg" xmlns:xlink="http://www.w3.org/1999/xlink" 
	 viewBox="0 0 512 512" xml:space="preserve">
<rect x="12.8" y="12.801" style="fill:#FEDEA1;" width="486.4" height="358.4"/>
<g>
	<path style="fill:#573A32;" d="M486.4,0.001H25.6c-14.14,0-25.6,11.46-25.6,25.6v332.8c0,14.14,11.46,25.6,25.6,25.6h166.929
		l-62.814,108.791c-3.541,6.127-1.442,13.952,4.685,17.485c6.127,3.541,13.943,1.442,17.485-4.685l70.204-121.591h67.814
		l70.204,121.591c3.541,6.127,11.358,8.226,17.485,4.685c6.127-3.541,8.226-11.358,4.685-17.485l-62.805-108.791H486.4
		c14.14,0,25.6-11.46,25.6-25.6v-332.8C512,11.462,500.54,0.001,486.4,0.001z M486.4,358.401H25.6v-332.8h460.8V358.401z"/>
	<path style="fill:#573A32;" d="M102.391,294.401c4.139,0,8.201-1.997,10.667-5.7l94.643-141.978l117.103,93.679
		c2.884,2.304,6.613,3.251,10.266,2.603c3.635-0.649,6.81-2.85,8.713-6.025l76.8-128c3.635-6.05,1.673-13.926-4.386-17.553
		c-6.059-3.678-13.935-1.647-17.562,4.403L329.37,211.253L212.804,118c-2.816-2.253-6.451-3.226-9.958-2.654
		c-3.55,0.546-6.699,2.577-8.687,5.547l-102.4,153.6c-3.925,5.871-2.338,13.824,3.55,17.749
		C97.485,293.702,99.951,294.401,102.391,294.401z"/>
</g>
</svg>